<svg xmlns="http://www.w3.org/2000/svg" viewBox="0 0 1000 1000"><path d="M59.7 265.7S148.9 126.8 290 52.3c141.1-74.5 315-53 429 19.2 114 72.3 152.4 133.2 152.4 133.2l98.2-56.5s20.3-10.2 20.3 13.5v354.5s0 31.6-23.7 20.3c-19.9-9.5-235.7-133.3-303.6-172.3-37.3-16.8-4.5-30.4-4.5-30.4l94.8-54.7s-54.1-68.3-133.2-104.5C535 130.3 455.7 125 358.6 162c-63.3 24.1-137.9 85.9-191.6 177.2L59.7 265.7zm880.6 468.6S851.1 873.2 710 947.7c-141.1 74.5-315 53.1-429-19.2S128.6 795.3 128.6 795.3l-98.2 56.4s-20.3 10.2-20.3-13.5V483.6s0-31.6 23.7-20.3c19.9 9.5 235.7 133.3 303.6 172.3 37.3 16.8 4.5 30.4 4.5 30.4l-94.8 54.7s54.1 68.3 133.2 104.5c84.7 44.5 164 49.8 261.1 12.8 63.3-24.1 137.9-85.9 191.6-177.2l107.3 73.5z"/></svg>